# xmcd
#
# Track frame offsets:
# 150
# 18745
# 30770
# 41705
# 57835
# 69520
# 86347
# 97787
# 117872
# 132277
#
# Disc length: 1911 seconds
#
#
# Revision: 0
# Processed by: cddbd v1.5.2PL0 Copyright (c) Steve Scherf et al.
# Submitted via: FreeRIP 2.951 
#
DISCID=7407750a
DTITLE=Bintangs - Alright Alright
DYEAR=1900
DGENRE=Blues
TTITLE0=Open and Busted
TTITLE1=Liontamer
TTITLE2=Mumblin' Mosie
TTITLE3=Fighting a losing battle
TTITLE4=Floating
TTITLE5=New Orleans, New Orleans
TTITLE6=Rock it little bastard
TTITLE7=I wanna be your cigarette
TTITLE8=Mush Mouth Milly
TTITLE9=Everything's gonna be everything
EXTD=
EXTT0=
EXTT1=
EXTT2=
EXTT3=
EXTT4=
EXTT5=
EXTT6=
EXTT7=
EXTT8=
EXTT9=
PLAYORDER=
